# xmcd
#
# Track frame offsets:
#	150
#	22989
#	40872
#	66619
#	90283
#	103042
#	126381
#	147456
#	170130
#	192504
#	212472
#
# Disc length: 3278 seconds
#
# Revision: 0
# Processed by: cddbd v1.5.2PL0 Copyright (c) Steve Scherf et al.
# Submitted via: EasyCDDAExtractor 12.0.1.1
#
DISCID=a20ccc0b
DTITLE=Johnnie Bassett - The Gentleman Is Back
DYEAR=2009
DGENRE=Blues
TTITLE0=A Women's Got Ways
TTITLE1=Keep Your Hands Off My Baby
TTITLE2=Nice Guys Finish Last
TTITLE3=Georgia
TTITLE4=Your Real Gitchiegumee
TTITLE5=Feeling Lucky
TTITLE6=Meat On Them Bones
TTITLE7=I'm Lost
TTITLE8=I Can't See What I Saw In You
TTITLE9=I Love The Way You Look
TTITLE10=My Old Flame
EXTD=
EXTT0=
EXTT1=
EXTT2=
EXTT3=
EXTT4=
EXTT5=
EXTT6=
EXTT7=
EXTT8=
EXTT9=
EXTT10=
PLAYORDER=
